<?xml version="1.0" standalone="no"?>
<!DOCTYPE svg PUBLIC "-//W3C//DTD SVG 20010904//EN"
 "http://www.w3.org/TR/2001/REC-SVG-20010904/DTD/svg10.dtd">
<svg version="1.0" xmlns="http://www.w3.org/2000/svg"
 width="700.000000pt" height="700.000000pt" viewBox="0 0 700.000000 700.000000"
 preserveAspectRatio="xMidYMid meet">
<metadata>
Created by potrace 1.14, written by Peter Selinger 2001-2017
</metadata>
<g transform="translate(0.000000,700.000000) scale(0.100000,-0.100000)"
fill="#000000" stroke="none">
<path d="M2950 6015 l-544 -546 154 -154 155 -155 282 282 c277 277 283 282
283 248 1 -19 1 -291 2 -605 l1 -570 -606 -305 c-333 -168 -620 -318 -637
-333 -18 -16 -40 -47 -51 -70 -18 -40 -19 -78 -19 -785 l0 -743 -544 -545
c-300 -299 -546 -544 -548 -544 -2 0 -3 170 -3 378 1 207 -1 383 -3 390 -3 9
-56 12 -218 12 -118 0 -214 -3 -215 -7 0 -5 -1 -345 -2 -757 -1 -522 1 -753 9
-760 7 -8 238 -11 760 -9 412 0 752 2 757 2 4 1 7 97 7 215 0 162 -3 215 -13
218 -6 2 -182 4 -390 3 -207 0 -377 1 -377 3 0 2 234 237 519 523 519 518 520
519 548 506 15 -7 289 -143 608 -302 566 -284 581 -290 638 -289 56 0 83 13
663 303 l604 302 520 -520 c286 -285 520 -521 520 -523 0 -2 -170 -3 -377 -3
-208 1 -384 -1 -390 -3 -10 -3 -13 -56 -13 -218 0 -118 3 -214 8 -215 40 -5
1501 -3 1512 2 13 6 15 99 13 761 -1 414 -2 756 -2 761 -1 4 -99 6 -218 5
l-218 -3 -1 -375 c-1 -206 -2 -381 -3 -388 0 -8 -246 232 -546 531 l-545 546
0 743 c0 703 -1 745 -19 784 -10 23 -32 53 -47 68 -16 15 -302 164 -636 332
l-608 304 0 43 c-1 48 -1 1046 0 1122 l0 50 283 -283 282 -282 155 155 154
155 -544 545 c-300 299 -547 545 -550 545 -3 0 -250 -246 -550 -545z m962
-2091 l412 -206 -412 -205 -411 -206 -411 206 -411 206 408 205 c224 113 409
205 411 205 1 1 187 -92 414 -205z m-1044 -789 l412 -207 0 -42 c1 -74 1 -808
1 -909 -1 -72 -4 -96 -13 -90 -6 4 -203 105 -437 223 l-426 215 0 510 c0 281
1 513 3 517 4 11 17 5 460 -217z m1727 -292 l0 -518 -150 -77 c-83 -43 -157
-81 -165 -84 -8 -4 -136 -67 -284 -141 -147 -74 -270 -132 -273 -130 -2 3 -4
236 -4 518 l-1 514 433 218 c239 119 436 217 439 217 3 0 5 -233 5 -517z"/>
</g>
</svg>
